<svg width="665" height="925" viewBox="0 0 665 925" fill="none" xmlns="http://www.w3.org/2000/svg">
<path d="M75.8016 29.9948C75.3487 28.2585 73.1227 20.2759 65.748 13.2592C63.2992 10.9298 57.9413 6.47888 49.768 4.35249C46.7236 3.56001 41.2895 2.57188 34.6839 3.67445C32.9918 3.95748 28.1878 4.88409 22.7524 7.91863C20.343 9.26363 14.9138 12.372 10.5404 18.7241C6.06363 25.2251 5.14933 31.5133 4.60789 35.5667C3.7145 42.2486 4.56728 47.4157 5.2367 51.276C6.6223 59.2746 9.23231 65.004 11.3944 69.7503C11.3944 69.7503 14.3773 76.2451 18.9561 83.6998C19.8237 85.1125 20.8807 86.791 20.8807 86.791C21.8578 88.3427 22.5321 89.3862 23.2705 90.5282C23.6187 91.0659 23.9104 91.5065 24.1589 91.8744C24.3029 92.0873 24.6388 92.5955 25.5322 93.9208C25.8596 94.4057 26.2976 95.0542 26.8206 95.8269C27.1972 95.8269 27.5749 95.8269 27.9515 95.8269C29.3236 95.8269 30.6956 95.8269 32.0677 95.8269C31.6948 95.3446 31.1337 94.6062 30.4655 93.6907C29.6903 92.6287 29.0688 91.7046 27.826 89.9203C27.303 89.1696 26.7345 88.3526 26.0503 87.3115C25.8128 86.951 25.0252 85.745 24.0236 84.0764C22.5703 81.6534 19.8581 77.2259 17.8031 73.1429C14.8695 67.3162 12.3481 62.3079 10.5773 55.2974C9.52395 51.1283 8.30939 46.3254 8.6921 39.902C8.92836 35.9371 9.38243 29.5948 13.5306 22.9363C14.979 20.6118 18.7248 15.2823 25.6676 11.678C27.1012 10.9335 30.7325 9.19349 35.7741 8.48346C37.9128 8.18197 43.2153 7.65776 49.5773 9.55158C57.79 11.9967 62.6507 16.9509 63.736 18.0978C65.5818 20.047 68.6816 23.8285 70.5853 29.4718C71.4257 31.9637 72.8876 37.3522 71.8417 44.0502C71.3605 47.1278 70.4893 49.5938 69.7743 51.2784C69.5073 51.7731 69.0852 52.4438 68.4379 53.1193C68.4293 53.128 68.422 53.1366 68.4133 53.1452C67.4437 49.3834 64.9826 45.8726 64.4596 45.0875C61.9886 41.3811 59.2432 39.2596 56.8264 37.4248C55.7288 36.5918 50.3956 32.6122 41.9884 30.0157C35.939 28.1465 31.055 27.8253 25.8349 27.4832C21.4849 27.1977 17.8277 27.2519 15.1956 27.3688C15.2583 30.0452 15.593 33.5006 16.6402 37.3916C17.0476 38.904 18.1181 42.5464 20.4414 46.8177C21.5132 48.7878 23.38 51.8642 26.305 55.1485C27.7571 56.779 29.374 58.6002 31.9791 60.4744C35.3237 62.8813 38.3571 63.9691 40.3284 64.6632C41.9872 65.2477 44.5541 66.1337 48.0883 66.4856C49.7631 66.653 52.4383 66.9065 55.7854 66.2653C58.2059 65.8014 59.9557 65.1209 60.9279 64.7259C62.1597 64.2251 63.2069 63.7932 64.1938 63.189C65.7209 62.4211 67.7045 60.686 68.294 60.1729C69.0692 59.4961 71.0086 57.7056 72.8384 54.6415C73.3552 53.7777 74.955 50.9573 75.9874 46.5654C77.8505 38.6505 76.3381 32.0559 75.8016 29.9948Z" fill="#C0C0C0" stroke="#C0C0C0" stroke-width="2.46111" stroke-miterlimit="10"/>
<path d="M75.8016 359.591C75.3487 357.855 73.1227 349.873 65.748 342.856C63.2992 340.526 57.9413 336.076 49.768 333.949C46.7236 333.157 41.2895 332.169 34.6839 333.271C32.9918 333.554 28.1878 334.481 22.7524 337.515C20.343 338.86 14.9138 341.969 10.5404 348.321C6.06363 354.822 5.14933 361.11 4.60789 365.163C3.7145 371.845 4.56728 377.012 5.2367 380.873C6.6223 388.871 9.23231 394.601 11.3944 399.347C11.3944 399.347 14.3773 405.842 18.9561 413.297C19.8237 414.709 20.8807 416.388 20.8807 416.388C21.8578 417.939 22.5321 418.983 23.2705 420.125C23.6187 420.663 23.9104 421.103 24.1589 421.471C24.3029 421.684 24.6388 422.192 25.5322 423.517C25.8596 424.002 26.2976 424.651 26.8206 425.424C27.1972 425.424 27.5749 425.424 27.9515 425.424C29.3236 425.424 30.6956 425.424 32.0677 425.424C31.6948 424.941 31.1337 424.203 30.4655 423.287C29.6903 422.225 29.0688 421.301 27.826 419.517C27.303 418.766 26.7345 417.949 26.0503 416.908C25.8128 416.548 25.0252 415.342 24.0236 413.673C22.5703 411.25 19.8581 406.823 17.8031 402.74C14.8695 396.913 12.3481 391.905 10.5773 384.894C9.52395 380.725 8.30939 375.922 8.6921 369.499C8.92836 365.534 9.38243 359.192 13.5306 352.533C14.979 350.208 18.7248 344.879 25.6676 341.275C27.1012 340.53 30.7325 338.79 35.7741 338.08C37.9128 337.779 43.2153 337.254 49.5773 339.148C57.79 341.593 62.6507 346.548 63.736 347.694C65.5818 349.644 68.6816 353.425 70.5853 359.068C71.4257 361.56 72.8876 366.949 71.8417 373.647C71.3605 376.724 70.4893 379.19 69.7743 380.875C69.5073 381.37 69.0852 382.04 68.4379 382.716C68.4293 382.725 68.422 382.733 68.4133 382.742C67.4437 378.98 64.9826 375.469 64.4596 374.684C61.9886 370.978 59.2432 368.856 56.8264 367.022C55.7288 366.188 50.3956 362.209 41.9884 359.612C35.939 357.743 31.055 357.422 25.8349 357.08C21.4849 356.794 17.8277 356.849 15.1956 356.965C15.2583 359.642 15.593 363.097 16.6402 366.988C17.0476 368.501 18.1181 372.143 20.4414 376.414C21.5132 378.384 23.38 381.461 26.305 384.745C27.7571 386.376 29.374 388.197 31.9791 390.071C35.3237 392.478 38.3571 393.566 40.3284 394.26C41.9872 394.844 44.5541 395.73 48.0883 396.082C49.7631 396.25 52.4383 396.503 55.7854 395.862C58.2059 395.398 59.9557 394.718 60.9279 394.323C62.1597 393.822 63.2069 393.39 64.1938 392.786C65.7209 392.018 67.7045 390.283 68.294 389.77C69.0692 389.093 71.0086 387.302 72.8384 384.238C73.3552 383.374 74.955 380.554 75.9874 376.162C77.8505 368.247 76.3381 361.653 75.8016 359.591Z" fill="#C0C0C0" stroke="#C0C0C0" stroke-width="2.46111" stroke-miterlimit="10"/>
<path d="M75.8016 689.591C75.3487 687.855 73.1227 679.872 65.748 672.856C63.2992 670.526 57.9413 666.076 49.768 663.949C46.7236 663.157 41.2895 662.169 34.6839 663.271C32.9918 663.554 28.1878 664.481 22.7524 667.515C20.343 668.86 14.9138 671.969 10.5404 678.321C6.06363 684.822 5.14933 691.11 4.60789 695.163C3.7145 701.845 4.56728 707.012 5.2367 710.873C6.6223 718.871 9.23231 724.601 11.3944 729.347C11.3944 729.347 14.3773 735.842 18.9561 743.296C19.8237 744.709 20.8807 746.388 20.8807 746.388C21.8578 747.939 22.5321 748.983 23.2705 750.125C23.6187 750.663 23.9104 751.103 24.1589 751.471C24.3029 751.684 24.6388 752.192 25.5322 753.517C25.8596 754.002 26.2976 754.651 26.8206 755.424C27.1972 755.424 27.5749 755.424 27.9515 755.424C29.3236 755.424 30.6956 755.424 32.0677 755.424C31.6948 754.941 31.1337 754.203 30.4655 753.287C29.6903 752.225 29.0688 751.301 27.826 749.517C27.303 748.766 26.7345 747.949 26.0503 746.908C25.8128 746.548 25.0252 745.342 24.0236 743.673C22.5703 741.25 19.8581 736.823 17.8031 732.74C14.8695 726.913 12.3481 721.905 10.5773 714.894C9.52395 710.725 8.30939 705.922 8.6921 699.499C8.92836 695.534 9.38243 689.191 13.5306 682.533C14.979 680.208 18.7248 674.879 25.6676 671.275C27.1012 670.53 30.7325 668.79 35.7741 668.08C37.9128 667.779 43.2153 667.254 49.5773 669.148C57.79 671.593 62.6507 676.548 63.736 677.694C65.5818 679.644 68.6816 683.425 70.5853 689.068C71.4257 691.56 72.8876 696.949 71.8417 703.647C71.3605 706.724 70.4893 709.19 69.7743 710.875C69.5073 711.37 69.0852 712.04 68.4379 712.716C68.4293 712.725 68.422 712.733 68.4133 712.742C67.4437 708.98 64.9826 705.469 64.4596 704.684C61.9886 700.978 59.2432 698.856 56.8264 697.021C55.7288 696.188 50.3956 692.209 41.9884 689.612C35.939 687.743 31.055 687.422 25.8349 687.08C21.4849 686.794 17.8277 686.849 15.1956 686.965C15.2583 689.642 15.593 693.097 16.6402 696.988C17.0476 698.501 18.1181 702.143 20.4414 706.414C21.5132 708.384 23.38 711.461 26.305 714.745C27.7571 716.376 29.374 718.197 31.9791 720.071C35.3237 722.478 38.3571 723.566 40.3284 724.26C41.9872 724.844 44.5541 725.73 48.0883 726.082C49.7631 726.25 52.4383 726.503 55.7854 725.862C58.2059 725.398 59.9557 724.718 60.9279 724.323C62.1597 723.822 63.2069 723.39 64.1938 722.786C65.7209 722.018 67.7045 720.283 68.294 719.77C69.0692 719.093 71.0086 717.302 72.8384 714.238C73.3552 713.374 74.955 710.554 75.9874 706.162C77.8505 698.247 76.3381 691.653 75.8016 689.591Z" fill="#C0C0C0" stroke="#C0C0C0" stroke-width="2.46111" stroke-miterlimit="10"/>
<path d="M75.8016 194.591C75.3487 192.855 73.1227 184.873 65.748 177.856C63.2992 175.526 57.9413 171.076 49.768 168.949C46.7236 168.157 41.2895 167.169 34.6839 168.271C32.9918 168.554 28.1878 169.481 22.7524 172.515C20.343 173.86 14.9138 176.969 10.5404 183.321C6.06363 189.822 5.14933 196.11 4.60789 200.163C3.7145 206.845 4.56728 212.012 5.2367 215.873C6.6223 223.871 9.23231 229.601 11.3944 234.347C11.3944 234.347 14.3773 240.842 18.9561 248.297C19.8237 249.709 20.8807 251.388 20.8807 251.388C21.8578 252.939 22.5321 253.983 23.2705 255.125C23.6187 255.663 23.9104 256.103 24.1589 256.471C24.3029 256.684 24.6388 257.192 25.5322 258.518C25.8596 259.002 26.2976 259.651 26.8206 260.424C27.1972 260.424 27.5749 260.424 27.9515 260.424C29.3236 260.424 30.6956 260.424 32.0677 260.424C31.6948 259.941 31.1337 259.203 30.4655 258.287C29.6903 257.225 29.0688 256.301 27.826 254.517C27.303 253.766 26.7345 252.949 26.0503 251.908C25.8128 251.548 25.0252 250.342 24.0236 248.673C22.5703 246.25 19.8581 241.823 17.8031 237.74C14.8695 231.913 12.3481 226.905 10.5773 219.894C9.52395 215.725 8.30939 210.922 8.6921 204.499C8.92836 200.534 9.38243 194.192 13.5306 187.533C14.979 185.208 18.7248 179.879 25.6676 176.275C27.1012 175.53 30.7325 173.79 35.7741 173.08C37.9128 172.779 43.2153 172.254 49.5773 174.148C57.79 176.593 62.6507 181.548 63.736 182.694C65.5818 184.644 68.6816 188.425 70.5853 194.068C71.4257 196.56 72.8876 201.949 71.8417 208.647C71.3605 211.724 70.4893 214.19 69.7743 215.875C69.5073 216.37 69.0852 217.04 68.4379 217.716C68.4293 217.725 68.422 217.733 68.4133 217.742C67.4437 213.98 64.9826 210.469 64.4596 209.684C61.9886 205.978 59.2432 203.856 56.8264 202.022C55.7288 201.188 50.3956 197.209 41.9884 194.612C35.939 192.743 31.055 192.422 25.8349 192.08C21.4849 191.794 17.8277 191.849 15.1956 191.965C15.2583 194.642 15.593 198.097 16.6402 201.988C17.0476 203.501 18.1181 207.143 20.4414 211.414C21.5132 213.384 23.38 216.461 26.305 219.745C27.7571 221.376 29.374 223.197 31.9791 225.071C35.3237 227.478 38.3571 228.566 40.3284 229.26C41.9872 229.844 44.5541 230.73 48.0883 231.082C49.7631 231.25 52.4383 231.503 55.7854 230.862C58.2059 230.398 59.9557 229.718 60.9279 229.323C62.1597 228.822 63.2069 228.39 64.1938 227.786C65.7209 227.018 67.7045 225.283 68.294 224.77C69.0692 224.093 71.0086 222.302 72.8384 219.238C73.3552 218.374 74.955 215.554 75.9874 211.162C77.8505 203.247 76.3381 196.653 75.8016 194.591Z" fill="#C0C0C0" stroke="#C0C0C0" stroke-width="2.46111" stroke-miterlimit="10"/>
<path d="M75.8016 524.188C75.3487 522.452 73.1227 514.469 65.748 507.453C63.2992 505.123 57.9413 500.672 49.768 498.546C46.7236 497.753 41.2895 496.765 34.6839 497.868C32.9918 498.151 28.1878 499.077 22.7524 502.112C20.343 503.457 14.9138 506.565 10.5404 512.917C6.06363 519.418 5.14933 525.707 4.60789 529.76C3.7145 536.442 4.56728 541.609 5.2367 545.469C6.6223 553.468 9.23231 559.197 11.3944 563.944C11.3944 563.944 14.3773 570.438 18.9561 577.893C19.8237 579.306 20.8807 580.984 20.8807 580.984C21.8578 582.536 22.5321 583.58 23.2705 584.722C23.6187 585.259 23.9104 585.7 24.1589 586.068C24.3029 586.281 24.6388 586.789 25.5322 588.114C25.8596 588.599 26.2976 589.248 26.8206 590.02C27.1972 590.02 27.5749 590.02 27.9515 590.02C29.3236 590.02 30.6956 590.02 32.0677 590.02C31.6948 589.538 31.1337 588.8 30.4655 587.884C29.6903 586.822 29.0688 585.898 27.826 584.114C27.303 583.363 26.7345 582.546 26.0503 581.505C25.8128 581.144 25.0252 579.938 24.0236 578.27C22.5703 575.847 19.8581 571.419 17.8031 567.336C14.8695 561.51 12.3481 556.501 10.5773 549.491C9.52395 545.322 8.30939 540.519 8.6921 534.095C8.92836 530.13 9.38243 523.788 13.5306 517.13C14.979 514.805 18.7248 509.476 25.6676 505.871C27.1012 505.127 30.7325 503.387 35.7741 502.677C37.9128 502.375 43.2153 501.851 49.5773 503.745C57.79 506.19 62.6507 511.144 63.736 512.291C65.5818 514.24 68.6816 518.022 70.5853 523.665C71.4257 526.157 72.8876 531.546 71.8417 538.244C71.3605 541.321 70.4893 543.787 69.7743 545.472C69.5073 545.966 69.0852 546.637 68.4379 547.313C68.4293 547.321 68.422 547.33 68.4133 547.339C67.4437 543.577 64.9826 540.066 64.4596 539.281C61.9886 535.574 59.2432 533.453 56.8264 531.618C55.7288 530.785 50.3956 526.806 41.9884 524.209C35.939 522.34 31.055 522.019 25.8349 521.677C21.4849 521.391 17.8277 521.445 15.1956 521.562C15.2583 524.239 15.593 527.694 16.6402 531.585C17.0476 533.097 18.1181 536.74 20.4414 541.011C21.5132 542.981 23.38 546.058 26.305 549.342C27.7571 550.972 29.374 552.794 31.9791 554.668C35.3237 557.075 38.3571 558.162 40.3284 558.857C41.9872 559.441 44.5541 560.327 48.0883 560.679C49.7631 560.846 52.4383 561.1 55.7854 560.459C58.2059 559.995 59.9557 559.314 60.9279 558.919C62.1597 558.418 63.2069 557.987 64.1938 557.382C65.7209 556.614 67.7045 554.879 68.294 554.366C69.0692 553.689 71.0086 551.899 72.8384 548.835C73.3552 547.971 74.955 545.151 75.9874 540.759C77.8505 532.844 76.3381 526.249 75.8016 524.188Z" fill="#C0C0C0" stroke="#C0C0C0" stroke-width="2.46111" stroke-miterlimit="10"/>
<path d="M75.8016 854.188C75.3487 852.452 73.1227 844.469 65.748 837.453C63.2992 835.123 57.9413 830.672 49.768 828.546C46.7236 827.753 41.2895 826.765 34.6839 827.868C32.9918 828.151 28.1878 829.077 22.7524 832.112C20.343 833.457 14.9138 836.565 10.5404 842.917C6.06363 849.418 5.14933 855.707 4.60789 859.76C3.7145 866.442 4.56728 871.609 5.2367 875.469C6.6223 883.468 9.23231 889.197 11.3944 893.944C11.3944 893.944 14.3773 900.438 18.9561 907.893C19.8237 909.306 20.8807 910.984 20.8807 910.984C21.8578 912.536 22.5321 913.58 23.2705 914.722C23.6187 915.259 23.9104 915.7 24.1589 916.068C24.3029 916.281 24.6388 916.789 25.5322 918.114C25.8596 918.599 26.2976 919.247 26.8206 920.02C27.1972 920.02 27.5749 920.02 27.9515 920.02C29.3236 920.02 30.6956 920.02 32.0677 920.02C31.6948 919.538 31.1337 918.8 30.4655 917.884C29.6903 916.822 29.0688 915.898 27.826 914.114C27.303 913.363 26.7345 912.546 26.0503 911.505C25.8128 911.144 25.0252 909.938 24.0236 908.27C22.5703 905.847 19.8581 901.419 17.8031 897.336C14.8695 891.51 12.3481 886.501 10.5773 879.491C9.52395 875.322 8.30939 870.519 8.6921 864.095C8.92836 860.13 9.38243 853.788 13.5306 847.13C14.979 844.805 18.7248 839.476 25.6676 835.871C27.1012 835.127 30.7325 833.387 35.7741 832.677C37.9128 832.375 43.2153 831.851 49.5773 833.745C57.79 836.19 62.6507 841.144 63.736 842.291C65.5818 844.24 68.6816 848.022 70.5853 853.665C71.4257 856.157 72.8876 861.546 71.8417 868.243C71.3605 871.321 70.4893 873.787 69.7743 875.472C69.5073 875.966 69.0852 876.637 68.4379 877.313C68.4293 877.321 68.422 877.33 68.4133 877.338C67.4437 873.577 64.9826 870.066 64.4596 869.281C61.9886 865.574 59.2432 863.453 56.8264 861.618C55.7288 860.785 50.3956 856.805 41.9884 854.209C35.939 852.34 31.055 852.019 25.8349 851.677C21.4849 851.391 17.8277 851.445 15.1956 851.562C15.2583 854.239 15.593 857.694 16.6402 861.585C17.0476 863.097 18.1181 866.74 20.4414 871.011C21.5132 872.981 23.38 876.057 26.305 879.342C27.7571 880.972 29.374 882.794 31.9791 884.668C35.3237 887.075 38.3571 888.162 40.3284 888.856C41.9872 889.441 44.5541 890.327 48.0883 890.679C49.7631 890.846 52.4383 891.1 55.7854 890.459C58.2059 889.995 59.9557 889.314 60.9279 888.919C62.1597 888.418 63.2069 887.986 64.1938 887.382C65.7209 886.614 67.7045 884.879 68.294 884.366C69.0692 883.689 71.0086 881.899 72.8384 878.835C73.3552 877.971 74.955 875.151 75.9874 870.759C77.8505 862.844 76.3381 856.249 75.8016 854.188Z" fill="#C0C0C0" stroke="#C0C0C0" stroke-width="2.46111" stroke-miterlimit="10"/>
<path d="M221.413 29.9948C220.96 28.2585 218.734 20.2759 211.36 13.2592C208.911 10.9298 203.553 6.47888 195.38 4.35249C192.335 3.56001 186.901 2.57188 180.295 3.67445C178.603 3.95748 173.799 4.88409 168.364 7.91863C165.955 9.26363 160.525 12.372 156.152 18.7241C151.675 25.2251 150.761 31.5133 150.22 35.5667C149.326 42.2486 150.179 47.4157 150.848 51.276C152.234 59.2746 154.844 65.004 157.006 69.7503C157.006 69.7503 159.989 76.2451 164.568 83.6998C165.435 85.1125 166.492 86.791 166.492 86.791C167.469 88.3427 168.144 89.3862 168.882 90.5282C169.23 91.0659 169.522 91.5065 169.771 91.8744C169.915 92.0873 170.25 92.5955 171.144 93.9208C171.471 94.4057 171.909 95.0542 172.432 95.8269C172.809 95.8269 173.187 95.8269 173.563 95.8269C174.935 95.8269 176.307 95.8269 177.679 95.8269C177.306 95.3446 176.745 94.6062 176.077 93.6907C175.302 92.6287 174.68 91.7046 173.438 89.9203C172.915 89.1696 172.346 88.3526 171.662 87.3115C171.424 86.951 170.637 85.745 169.635 84.0764C168.182 81.6534 165.47 77.2259 163.415 73.1429C160.481 67.3162 157.96 62.3079 156.189 55.2974C155.136 51.1283 153.921 46.3254 154.304 39.902C154.54 35.9371 154.994 29.5948 159.142 22.9363C160.591 20.6118 164.336 15.2823 171.279 11.678C172.713 10.9335 176.344 9.19349 181.386 8.48346C183.524 8.18197 188.827 7.65776 195.189 9.55158C203.402 11.9967 208.262 16.9509 209.348 18.0978C211.193 20.047 214.293 23.8285 216.197 29.4718C217.037 31.9637 218.499 37.3522 217.453 44.0502C216.972 47.1278 216.101 49.5938 215.386 51.2784C215.119 51.7731 214.697 52.4438 214.05 53.1193C214.041 53.128 214.034 53.1366 214.025 53.1452C213.055 49.3834 210.594 45.8726 210.071 45.0875C207.6 41.3811 204.855 39.2596 202.438 37.4248C201.34 36.5918 196.007 32.6122 187.6 30.0157C181.551 28.1465 176.667 27.8253 171.447 27.4832C167.097 27.1977 163.439 27.2519 160.807 27.3688C160.87 30.0452 161.205 33.5006 162.252 37.3916C162.659 38.904 163.73 42.5464 166.053 46.8177C167.125 48.7878 168.992 51.8642 171.917 55.1485C173.369 56.779 174.986 58.6002 177.591 60.4744C180.935 62.8813 183.969 63.9691 185.94 64.6632C187.599 65.2477 190.166 66.1337 193.7 66.4856C195.375 66.653 198.05 66.9065 201.397 66.2653C203.818 65.8014 205.567 65.1209 206.54 64.7259C207.771 64.2251 208.818 63.7932 209.805 63.189C211.333 62.4211 213.316 60.686 213.906 60.1729C214.681 59.4961 216.62 57.7056 218.45 54.6415C218.967 53.7777 220.567 50.9573 221.599 46.5654C223.462 38.6505 221.95 32.0559 221.413 29.9948Z" fill="#C0C0C0" stroke="#C0C0C0" stroke-width="2.46111" stroke-miterlimit="10"/>
<path d="M221.413 359.591C220.96 357.855 218.734 349.873 211.36 342.856C208.911 340.526 203.553 336.076 195.38 333.949C192.335 333.157 186.901 332.169 180.295 333.271C178.603 333.554 173.799 334.481 168.364 337.515C165.955 338.86 160.525 341.969 156.152 348.321C151.675 354.822 150.761 361.11 150.22 365.163C149.326 371.845 150.179 377.012 150.848 380.873C152.234 388.871 154.844 394.601 157.006 399.347C157.006 399.347 159.989 405.842 164.568 413.297C165.435 414.709 166.492 416.388 166.492 416.388C167.469 417.939 168.144 418.983 168.882 420.125C169.23 420.663 169.522 421.103 169.771 421.471C169.915 421.684 170.25 422.192 171.144 423.517C171.471 424.002 171.909 424.651 172.432 425.424C172.809 425.424 173.187 425.424 173.563 425.424C174.935 425.424 176.307 425.424 177.679 425.424C177.306 424.941 176.745 424.203 176.077 423.287C175.302 422.225 174.68 421.301 173.438 419.517C172.915 418.766 172.346 417.949 171.662 416.908C171.424 416.548 170.637 415.342 169.635 413.673C168.182 411.25 165.47 406.823 163.415 402.74C160.481 396.913 157.96 391.905 156.189 384.894C155.136 380.725 153.921 375.922 154.304 369.499C154.54 365.534 154.994 359.192 159.142 352.533C160.591 350.208 164.336 344.879 171.279 341.275C172.713 340.53 176.344 338.79 181.386 338.08C183.524 337.779 188.827 337.254 195.189 339.148C203.402 341.593 208.262 346.548 209.348 347.694C211.193 349.644 214.293 353.425 216.197 359.068C217.037 361.56 218.499 366.949 217.453 373.647C216.972 376.724 216.101 379.19 215.386 380.875C215.119 381.37 214.697 382.04 214.05 382.716C214.041 382.725 214.034 382.733 214.025 382.742C213.055 378.98 210.594 375.469 210.071 374.684C207.6 370.978 204.855 368.856 202.438 367.022C201.34 366.188 196.007 362.209 187.6 359.612C181.551 357.743 176.667 357.422 171.447 357.08C167.097 356.794 163.439 356.849 160.807 356.965C160.87 359.642 161.205 363.097 162.252 366.988C162.659 368.501 163.73 372.143 166.053 376.414C167.125 378.384 168.992 381.461 171.917 384.745C173.369 386.376 174.986 388.197 177.591 390.071C180.935 392.478 183.969 393.566 185.94 394.26C187.599 394.844 190.166 395.73 193.7 396.082C195.375 396.25 198.05 396.503 201.397 395.862C203.818 395.398 205.567 394.718 206.54 394.323C207.771 393.822 208.818 393.39 209.805 392.786C211.333 392.018 213.316 390.283 213.906 389.77C214.681 389.093 216.62 387.302 218.45 384.238C218.967 383.374 220.567 380.554 221.599 376.162C223.462 368.247 221.95 361.653 221.413 359.591Z" fill="#C0C0C0" stroke="#C0C0C0" stroke-width="2.46111" stroke-miterlimit="10"/>
<path d="M221.413 689.591C220.96 687.855 218.734 679.872 211.36 672.856C208.911 670.526 203.553 666.076 195.38 663.949C192.335 663.157 186.901 662.169 180.295 663.271C178.603 663.554 173.799 664.481 168.364 667.515C165.955 668.86 160.525 671.969 156.152 678.321C151.675 684.822 150.761 691.11 150.22 695.163C149.326 701.845 150.179 707.012 150.848 710.873C152.234 718.871 154.844 724.601 157.006 729.347C157.006 729.347 159.989 735.842 164.568 743.296C165.435 744.709 166.492 746.388 166.492 746.388C167.469 747.939 168.144 748.983 168.882 750.125C169.23 750.663 169.522 751.103 169.771 751.471C169.915 751.684 170.25 752.192 171.144 753.517C171.471 754.002 171.909 754.651 172.432 755.424C172.809 755.424 173.187 755.424 173.563 755.424C174.935 755.424 176.307 755.424 177.679 755.424C177.306 754.941 176.745 754.203 176.077 753.287C175.302 752.225 174.68 751.301 173.438 749.517C172.915 748.766 172.346 747.949 171.662 746.908C171.424 746.548 170.637 745.342 169.635 743.673C168.182 741.25 165.47 736.823 163.415 732.74C160.481 726.913 157.96 721.905 156.189 714.894C155.136 710.725 153.921 705.922 154.304 699.499C154.54 695.534 154.994 689.191 159.142 682.533C160.591 680.208 164.336 674.879 171.279 671.275C172.713 670.53 176.344 668.79 181.386 668.08C183.524 667.779 188.827 667.254 195.189 669.148C203.402 671.593 208.262 676.548 209.348 677.694C211.193 679.644 214.293 683.425 216.197 689.068C217.037 691.56 218.499 696.949 217.453 703.647C216.972 706.724 216.101 709.19 215.386 710.875C215.119 711.37 214.697 712.04 214.05 712.716C214.041 712.725 214.034 712.733 214.025 712.742C213.055 708.98 210.594 705.469 210.071 704.684C207.6 700.978 204.855 698.856 202.438 697.021C201.34 696.188 196.007 692.209 187.6 689.612C181.551 687.743 176.667 687.422 171.447 687.08C167.097 686.794 163.439 686.849 160.807 686.965C160.87 689.642 161.205 693.097 162.252 696.988C162.659 698.501 163.73 702.143 166.053 706.414C167.125 708.384 168.992 711.461 171.917 714.745C173.369 716.376 174.986 718.197 177.591 720.071C180.935 722.478 183.969 723.566 185.94 724.26C187.599 724.844 190.166 725.73 193.7 726.082C195.375 726.25 198.05 726.503 201.397 725.862C203.818 725.398 205.567 724.718 206.54 724.323C207.771 723.822 208.818 723.39 209.805 722.786C211.333 722.018 213.316 720.283 213.906 719.77C214.681 719.093 216.62 717.302 218.45 714.238C218.967 713.374 220.567 710.554 221.599 706.162C223.462 698.247 221.95 691.653 221.413 689.591Z" fill="#C0C0C0" stroke="#C0C0C0" stroke-width="2.46111" stroke-miterlimit="10"/>
<path d="M221.413 194.591C220.96 192.855 218.734 184.873 211.36 177.856C208.911 175.526 203.553 171.076 195.38 168.949C192.335 168.157 186.901 167.169 180.295 168.271C178.603 168.554 173.799 169.481 168.364 172.515C165.955 173.86 160.525 176.969 156.152 183.321C151.675 189.822 150.761 196.11 150.22 200.163C149.326 206.845 150.179 212.012 150.848 215.873C152.234 223.871 154.844 229.601 157.006 234.347C157.006 234.347 159.989 240.842 164.568 248.297C165.435 249.709 166.492 251.388 166.492 251.388C167.469 252.939 168.144 253.983 168.882 255.125C169.23 255.663 169.522 256.103 169.771 256.471C169.915 256.684 170.25 257.192 171.144 258.518C171.471 259.002 171.909 259.651 172.432 260.424C172.809 260.424 173.187 260.424 173.563 260.424C174.935 260.424 176.307 260.424 177.679 260.424C177.306 259.941 176.745 259.203 176.077 258.287C175.302 257.225 174.68 256.301 173.438 254.517C172.915 253.766 172.346 252.949 171.662 251.908C171.424 251.548 170.637 250.342 169.635 248.673C168.182 246.25 165.47 241.823 163.415 237.74C160.481 231.913 157.96 226.905 156.189 219.894C155.136 215.725 153.921 210.922 154.304 204.499C154.54 200.534 154.994 194.192 159.142 187.533C160.591 185.208 164.336 179.879 171.279 176.275C172.713 175.53 176.344 173.79 181.386 173.08C183.524 172.779 188.827 172.254 195.189 174.148C203.402 176.593 208.262 181.548 209.348 182.694C211.193 184.644 214.293 188.425 216.197 194.068C217.037 196.56 218.499 201.949 217.453 208.647C216.972 211.724 216.101 214.19 215.386 215.875C215.119 216.37 214.697 217.04 214.05 217.716C214.041 217.725 214.034 217.733 214.025 217.742C213.055 213.98 210.594 210.469 210.071 209.684C207.6 205.978 204.855 203.856 202.438 202.022C201.34 201.188 196.007 197.209 187.6 194.612C181.551 192.743 176.667 192.422 171.447 192.08C167.097 191.794 163.439 191.849 160.807 191.965C160.87 194.642 161.205 198.097 162.252 201.988C162.659 203.501 163.73 207.143 166.053 211.414C167.125 213.384 168.992 216.461 171.917 219.745C173.369 221.376 174.986 223.197 177.591 225.071C180.935 227.478 183.969 228.566 185.94 229.26C187.599 229.844 190.166 230.73 193.7 231.082C195.375 231.25 198.05 231.503 201.397 230.862C203.818 230.398 205.567 229.718 206.54 229.323C207.771 228.822 208.818 228.39 209.805 227.786C211.333 227.018 213.316 225.283 213.906 224.77C214.681 224.093 216.62 222.302 218.45 219.238C218.967 218.374 220.567 215.554 221.599 211.162C223.462 203.247 221.95 196.653 221.413 194.591Z" fill="#C0C0C0" stroke="#C0C0C0" stroke-width="2.46111" stroke-miterlimit="10"/>
<path d="M221.413 524.188C220.96 522.452 218.734 514.469 211.36 507.453C208.911 505.123 203.553 500.672 195.38 498.546C192.335 497.753 186.901 496.765 180.295 497.868C178.603 498.151 173.799 499.077 168.364 502.112C165.955 503.457 160.525 506.565 156.152 512.917C151.675 519.418 150.761 525.707 150.22 529.76C149.326 536.442 150.179 541.609 150.848 545.469C152.234 553.468 154.844 559.197 157.006 563.944C157.006 563.944 159.989 570.438 164.568 577.893C165.435 579.306 166.492 580.984 166.492 580.984C167.469 582.536 168.144 583.58 168.882 584.722C169.23 585.259 169.522 585.7 169.771 586.068C169.915 586.281 170.25 586.789 171.144 588.114C171.471 588.599 171.909 589.248 172.432 590.02C172.809 590.02 173.187 590.02 173.563 590.02C174.935 590.02 176.307 590.02 177.679 590.02C177.306 589.538 176.745 588.8 176.077 587.884C175.302 586.822 174.68 585.898 173.438 584.114C172.915 583.363 172.346 582.546 171.662 581.505C171.424 581.144 170.637 579.938 169.635 578.27C168.182 575.847 165.47 571.419 163.415 567.336C160.481 561.51 157.96 556.501 156.189 549.491C155.136 545.322 153.921 540.519 154.304 534.095C154.54 530.13 154.994 523.788 159.142 517.13C160.591 514.805 164.336 509.476 171.279 505.871C172.713 505.127 176.344 503.387 181.386 502.677C183.524 502.375 188.827 501.851 195.189 503.745C203.402 506.19 208.262 511.144 209.348 512.291C211.193 514.24 214.293 518.022 216.197 523.665C217.037 526.157 218.499 531.546 217.453 538.244C216.972 541.321 216.101 543.787 215.386 545.472C215.119 545.966 214.697 546.637 214.05 547.313C214.041 547.321 214.034 547.33 214.025 547.339C213.055 543.577 210.594 540.066 210.071 539.281C207.6 535.574 204.855 533.453 202.438 531.618C201.34 530.785 196.007 526.806 187.6 524.209C181.551 522.34 176.667 522.019 171.447 521.677C167.097 521.391 163.439 521.445 160.807 521.562C160.87 524.239 161.205 527.694 162.252 531.585C162.659 533.097 163.73 536.74 166.053 541.011C167.125 542.981 168.992 546.058 171.917 549.342C173.369 550.972 174.986 552.794 177.591 554.668C180.935 557.075 183.969 558.162 185.94 558.857C187.599 559.441 190.166 560.327 193.7 560.679C195.375 560.846 198.05 561.1 201.397 560.459C203.818 559.995 205.567 559.314 206.54 558.919C207.771 558.418 208.818 557.987 209.805 557.382C211.333 556.614 213.316 554.879 213.906 554.366C214.681 553.689 216.62 551.899 218.45 548.835C218.967 547.971 220.567 545.151 221.599 540.759C223.462 532.844 221.95 526.249 221.413 524.188Z" fill="#C0C0C0" stroke="#C0C0C0" stroke-width="2.46111" stroke-miterlimit="10"/>
<path d="M221.413 854.188C220.96 852.452 218.734 844.469 211.36 837.453C208.911 835.123 203.553 830.672 195.38 828.546C192.335 827.753 186.901 826.765 180.295 827.868C178.603 828.151 173.799 829.077 168.364 832.112C165.955 833.457 160.525 836.565 156.152 842.917C151.675 849.418 150.761 855.707 150.22 859.76C149.326 866.442 150.179 871.609 150.848 875.469C152.234 883.468 154.844 889.197 157.006 893.944C157.006 893.944 159.989 900.438 164.568 907.893C165.435 909.306 166.492 910.984 166.492 910.984C167.469 912.536 168.144 913.58 168.882 914.722C169.23 915.259 169.522 915.7 169.771 916.068C169.915 916.281 170.25 916.789 171.144 918.114C171.471 918.599 171.909 919.247 172.432 920.02C172.809 920.02 173.187 920.02 173.563 920.02C174.935 920.02 176.307 920.02 177.679 920.02C177.306 919.538 176.745 918.8 176.077 917.884C175.302 916.822 174.68 915.898 173.438 914.114C172.915 913.363 172.346 912.546 171.662 911.505C171.424 911.144 170.637 909.938 169.635 908.27C168.182 905.847 165.47 901.419 163.415 897.336C160.481 891.51 157.96 886.501 156.189 879.491C155.136 875.322 153.921 870.519 154.304 864.095C154.54 860.13 154.994 853.788 159.142 847.13C160.591 844.805 164.336 839.476 171.279 835.871C172.713 835.127 176.344 833.387 181.386 832.677C183.524 832.375 188.827 831.851 195.189 833.745C203.402 836.19 208.262 841.144 209.348 842.291C211.193 844.24 214.293 848.022 216.197 853.665C217.037 856.157 218.499 861.546 217.453 868.243C216.972 871.321 216.101 873.787 215.386 875.472C215.119 875.966 214.697 876.637 214.05 877.313C214.041 877.321 214.034 877.33 214.025 877.338C213.055 873.577 210.594 870.066 210.071 869.281C207.6 865.574 204.855 863.453 202.438 861.618C201.34 860.785 196.007 856.805 187.6 854.209C181.551 852.34 176.667 852.019 171.447 851.677C167.097 851.391 163.439 851.445 160.807 851.562C160.87 854.239 161.205 857.694 162.252 861.585C162.659 863.097 163.73 866.74 166.053 871.011C167.125 872.981 168.992 876.057 171.917 879.342C173.369 880.972 174.986 882.794 177.591 884.668C180.935 887.075 183.969 888.162 185.94 888.856C187.599 889.441 190.166 890.327 193.7 890.679C195.375 890.846 198.05 891.1 201.397 890.459C203.818 889.995 205.567 889.314 206.54 888.919C207.771 888.418 208.818 887.986 209.805 887.382C211.333 886.614 213.316 884.879 213.906 884.366C214.681 883.689 216.62 881.899 218.45 878.835C218.967 877.971 220.567 875.151 221.599 870.759C223.462 862.844 221.95 856.249 221.413 854.188Z" fill="#C0C0C0" stroke="#C0C0C0" stroke-width="2.46111" stroke-miterlimit="10"/>
<path d="M367.025 29.9948C366.572 28.2585 364.346 20.2759 356.971 13.2592C354.522 10.9298 349.165 6.47888 340.991 4.35249C337.947 3.56001 332.513 2.57188 325.907 3.67445C324.215 3.95748 319.411 4.88409 313.976 7.91863C311.566 9.26363 306.137 12.372 301.764 18.7241C297.287 25.2251 296.373 31.5133 295.831 35.5667C294.938 42.2486 295.791 47.4157 296.46 51.276C297.846 59.2746 300.456 65.004 302.618 69.7503C302.618 69.7503 305.601 76.2451 310.179 83.6998C311.047 85.1125 312.104 86.791 312.104 86.791C313.081 88.3427 313.755 89.3862 314.494 90.5282C314.842 91.0659 315.134 91.5065 315.382 91.8744C315.526 92.0873 315.862 92.5955 316.755 93.9208C317.083 94.4057 317.521 95.0542 318.044 95.8269C318.42 95.8269 318.798 95.8269 319.175 95.8269C320.547 95.8269 321.919 95.8269 323.291 95.8269C322.918 95.3446 322.357 94.6062 321.689 93.6907C320.914 92.6287 320.292 91.7046 319.049 89.9203C318.526 89.1696 317.958 88.3526 317.274 87.3115C317.036 86.951 316.249 85.745 315.247 84.0764C313.794 81.6534 311.081 77.2259 309.026 73.1429C306.093 67.3162 303.571 62.3079 301.801 55.2974C300.747 51.1283 299.533 46.3254 299.915 39.902C300.152 35.9371 300.606 29.5948 304.754 22.9363C306.202 20.6118 309.948 15.2823 316.891 11.678C318.324 10.9335 321.956 9.19349 326.997 8.48346C329.136 8.18197 334.439 7.65776 340.801 9.55158C349.013 11.9967 353.874 16.9509 354.959 18.0978C356.805 20.047 359.905 23.8285 361.809 29.4718C362.649 31.9637 364.111 37.3522 363.065 44.0502C362.584 47.1278 361.713 49.5938 360.998 51.2784C360.731 51.7731 360.308 52.4438 359.661 53.1193C359.653 53.128 359.645 53.1366 359.637 53.1452C358.667 49.3834 356.206 45.8726 355.683 45.0875C353.212 41.3811 350.467 39.2596 348.05 37.4248C346.952 36.5918 341.619 32.6122 333.212 30.0157C327.162 28.1465 322.278 27.8253 317.058 27.4832C312.708 27.1977 309.051 27.2519 306.419 27.3688C306.482 30.0452 306.816 33.5006 307.864 37.3916C308.271 38.904 309.341 42.5464 311.665 46.8177C312.736 48.7878 314.603 51.8642 317.528 55.1485C318.98 56.779 320.597 58.6002 323.202 60.4744C326.547 62.8813 329.58 63.9691 331.552 64.6632C333.21 65.2477 335.777 66.1337 339.312 66.4856C340.986 66.653 343.662 66.9065 347.009 66.2653C349.429 65.8014 351.179 65.1209 352.151 64.7259C353.383 64.2251 354.43 63.7932 355.417 63.189C356.944 62.4211 358.928 60.686 359.517 60.1729C360.292 59.4961 362.232 57.7056 364.062 54.6415C364.579 53.7777 366.178 50.9573 367.211 46.5654C369.074 38.6505 367.561 32.0559 367.025 29.9948Z" fill="#C0C0C0" stroke="#C0C0C0" stroke-width="2.46111" stroke-miterlimit="10"/>
<path d="M367.025 359.591C366.572 357.855 364.346 349.873 356.971 342.856C354.522 340.526 349.165 336.076 340.991 333.949C337.947 333.157 332.513 332.169 325.907 333.271C324.215 333.554 319.411 334.481 313.976 337.515C311.566 338.86 306.137 341.969 301.764 348.321C297.287 354.822 296.373 361.11 295.831 365.163C294.938 371.845 295.791 377.012 296.46 380.873C297.846 388.871 300.456 394.601 302.618 399.347C302.618 399.347 305.601 405.842 310.179 413.297C311.047 414.709 312.104 416.388 312.104 416.388C313.081 417.939 313.755 418.983 314.494 420.125C314.842 420.663 315.134 421.103 315.382 421.471C315.526 421.684 315.862 422.192 316.755 423.517C317.083 424.002 317.521 424.651 318.044 425.424C318.42 425.424 318.798 425.424 319.175 425.424C320.547 425.424 321.919 425.424 323.291 425.424C322.918 424.941 322.357 424.203 321.689 423.287C320.914 422.225 320.292 421.301 319.049 419.517C318.526 418.766 317.958 417.949 317.274 416.908C317.036 416.548 316.249 415.342 315.247 413.673C313.794 411.25 311.081 406.823 309.026 402.74C306.093 396.913 303.571 391.905 301.801 384.894C300.747 380.725 299.533 375.922 299.915 369.499C300.152 365.534 300.606 359.192 304.754 352.533C306.202 350.208 309.948 344.879 316.891 341.275C318.324 340.53 321.956 338.79 326.997 338.08C329.136 337.779 334.439 337.254 340.801 339.148C349.013 341.593 353.874 346.548 354.959 347.694C356.805 349.644 359.905 353.425 361.809 359.068C362.649 361.56 364.111 366.949 363.065 373.647C362.584 376.724 361.713 379.19 360.998 380.875C360.731 381.37 360.308 382.04 359.661 382.716C359.653 382.725 359.645 382.733 359.637 382.742C358.667 378.98 356.206 375.469 355.683 374.684C353.212 370.978 350.467 368.856 348.05 367.022C346.952 366.188 341.619 362.209 333.212 359.612C327.162 357.743 322.278 357.422 317.058 357.08C312.708 356.794 309.051 356.849 306.419 356.965C306.482 359.642 306.816 363.097 307.864 366.988C308.271 368.501 309.341 372.143 311.665 376.414C312.736 378.384 314.603 381.461 317.528 384.745C318.98 386.376 320.597 388.197 323.202 390.071C326.547 392.478 329.58 393.566 331.552 394.26C333.21 394.844 335.777 395.73 339.312 396.082C340.986 396.25 343.662 396.503 347.009 395.862C349.429 395.398 351.179 394.718 352.151 394.323C353.383 393.822 354.43 393.39 355.417 392.786C356.944 392.018 358.928 390.283 359.517 389.77C360.292 389.093 362.232 387.302 364.062 384.238C364.579 383.374 366.178 380.554 367.211 376.162C369.074 368.247 367.561 361.653 367.025 359.591Z" fill="#C0C0C0" stroke="#C0C0C0" stroke-width="2.46111" stroke-miterlimit="10"/>
<path d="M367.025 689.591C366.572 687.855 364.346 679.872 356.971 672.856C354.522 670.526 349.165 666.076 340.991 663.949C337.947 663.157 332.513 662.169 325.907 663.271C324.215 663.554 319.411 664.481 313.976 667.515C311.566 668.86 306.137 671.969 301.764 678.321C297.287 684.822 296.373 691.11 295.831 695.163C294.938 701.845 295.791 707.012 296.46 710.873C297.846 718.871 300.456 724.601 302.618 729.347C302.618 729.347 305.601 735.842 310.179 743.296C311.047 744.709 312.104 746.388 312.104 746.388C313.081 747.939 313.755 748.983 314.494 750.125C314.842 750.663 315.134 751.103 315.382 751.471C315.526 751.684 315.862 752.192 316.755 753.517C317.083 754.002 317.521 754.651 318.044 755.424C318.42 755.424 318.798 755.424 319.175 755.424C320.547 755.424 321.919 755.424 323.291 755.424C322.918 754.941 322.357 754.203 321.689 753.287C320.914 752.225 320.292 751.301 319.049 749.517C318.526 748.766 317.958 747.949 317.274 746.908C317.036 746.548 316.249 745.342 315.247 743.673C313.794 741.25 311.081 736.823 309.026 732.74C306.093 726.913 303.571 721.905 301.801 714.894C300.747 710.725 299.533 705.922 299.915 699.499C300.152 695.534 300.606 689.191 304.754 682.533C306.202 680.208 309.948 674.879 316.891 671.275C318.324 670.53 321.956 668.79 326.997 668.08C329.136 667.779 334.439 667.254 340.801 669.148C349.013 671.593 353.874 676.548 354.959 677.694C356.805 679.644 359.905 683.425 361.809 689.068C362.649 691.56 364.111 696.949 363.065 703.647C362.584 706.724 361.713 709.19 360.998 710.875C360.731 711.37 360.308 712.04 359.661 712.716C359.653 712.725 359.645 712.733 359.637 712.742C358.667 708.98 356.206 705.469 355.683 704.684C353.212 700.978 350.467 698.856 348.05 697.021C346.952 696.188 341.619 692.209 333.212 689.612C327.162 687.743 322.278 687.422 317.058 687.08C312.708 686.794 309.051 686.849 306.419 686.965C306.482 689.642 306.816 693.097 307.864 696.988C308.271 698.501 309.341 702.143 311.665 706.414C312.736 708.384 314.603 711.461 317.528 714.745C318.98 716.376 320.597 718.197 323.202 720.071C326.547 722.478 329.58 723.566 331.552 724.26C333.21 724.844 335.777 725.73 339.312 726.082C340.986 726.25 343.662 726.503 347.009 725.862C349.429 725.398 351.179 724.718 352.151 724.323C353.383 723.822 354.43 723.39 355.417 722.786C356.944 722.018 358.928 720.283 359.517 719.77C360.292 719.093 362.232 717.302 364.062 714.238C364.579 713.374 366.178 710.554 367.211 706.162C369.074 698.247 367.561 691.653 367.025 689.591Z" fill="#C0C0C0" stroke="#C0C0C0" stroke-width="2.46111" stroke-miterlimit="10"/>
<path d="M367.025 194.591C366.572 192.855 364.346 184.873 356.971 177.856C354.522 175.526 349.165 171.076 340.991 168.949C337.947 168.157 332.513 167.169 325.907 168.271C324.215 168.554 319.411 169.481 313.976 172.515C311.566 173.86 306.137 176.969 301.764 183.321C297.287 189.822 296.373 196.11 295.831 200.163C294.938 206.845 295.791 212.012 296.46 215.873C297.846 223.871 300.456 229.601 302.618 234.347C302.618 234.347 305.601 240.842 310.179 248.297C311.047 249.709 312.104 251.388 312.104 251.388C313.081 252.939 313.755 253.983 314.494 255.125C314.842 255.663 315.134 256.103 315.382 256.471C315.526 256.684 315.862 257.192 316.755 258.518C317.083 259.002 317.521 259.651 318.044 260.424C318.42 260.424 318.798 260.424 319.175 260.424C320.547 260.424 321.919 260.424 323.291 260.424C322.918 259.941 322.357 259.203 321.689 258.287C320.914 257.225 320.292 256.301 319.049 254.517C318.526 253.766 317.958 252.949 317.274 251.908C317.036 251.548 316.249 250.342 315.247 248.673C313.794 246.25 311.081 241.823 309.026 237.74C306.093 231.913 303.571 226.905 301.801 219.894C300.747 215.725 299.533 210.922 299.915 204.499C300.152 200.534 300.606 194.192 304.754 187.533C306.202 185.208 309.948 179.879 316.891 176.275C318.324 175.53 321.956 173.79 326.997 173.08C329.136 172.779 334.439 172.254 340.801 174.148C349.013 176.593 353.874 181.548 354.959 182.694C356.805 184.644 359.905 188.425 361.809 194.068C362.649 196.56 364.111 201.949 363.065 208.647C362.584 211.724 361.713 214.19 360.998 215.875C360.731 216.37 360.308 217.04 359.661 217.716C359.653 217.725 359.645 217.733 359.637 217.742C358.667 213.98 356.206 210.469 355.683 209.684C353.212 205.978 350.467 203.856 348.05 202.022C346.952 201.188 341.619 197.209 333.212 194.612C327.162 192.743 322.278 192.422 317.058 192.08C312.708 191.794 309.051 191.849 306.419 191.965C306.482 194.642 306.816 198.097 307.864 201.988C308.271 203.501 309.341 207.143 311.665 211.414C312.736 213.384 314.603 216.461 317.528 219.745C318.98 221.376 320.597 223.197 323.202 225.071C326.547 227.478 329.58 228.566 331.552 229.26C333.21 229.844 335.777 230.73 339.312 231.082C340.986 231.25 343.662 231.503 347.009 230.862C349.429 230.398 351.179 229.718 352.151 229.323C353.383 228.822 354.43 228.39 355.417 227.786C356.944 227.018 358.928 225.283 359.517 224.77C360.292 224.093 362.232 222.302 364.062 219.238C364.579 218.374 366.178 215.554 367.211 211.162C369.074 203.247 367.561 196.653 367.025 194.591Z" fill="#C0C0C0" stroke="#C0C0C0" stroke-width="2.46111" stroke-miterlimit="10"/>
<path d="M367.025 524.188C366.572 522.452 364.346 514.469 356.971 507.453C354.522 505.123 349.165 500.672 340.991 498.546C337.947 497.753 332.513 496.765 325.907 497.868C324.215 498.151 319.411 499.077 313.976 502.112C311.566 503.457 306.137 506.565 301.764 512.917C297.287 519.418 296.373 525.707 295.831 529.76C294.938 536.442 295.791 541.609 296.46 545.469C297.846 553.468 300.456 559.197 302.618 563.944C302.618 563.944 305.601 570.438 310.179 577.893C311.047 579.306 312.104 580.984 312.104 580.984C313.081 582.536 313.755 583.58 314.494 584.722C314.842 585.259 315.134 585.7 315.382 586.068C315.526 586.281 315.862 586.789 316.755 588.114C317.083 588.599 317.521 589.248 318.044 590.02C318.42 590.02 318.798 590.02 319.175 590.02C320.547 590.02 321.919 590.02 323.291 590.02C322.918 589.538 322.357 588.8 321.689 587.884C320.914 586.822 320.292 585.898 319.049 584.114C318.526 583.363 317.958 582.546 317.274 581.505C317.036 581.144 316.249 579.938 315.247 578.27C313.794 575.847 311.081 571.419 309.026 567.336C306.093 561.51 303.571 556.501 301.801 549.491C300.747 545.322 299.533 540.519 299.915 534.095C300.152 530.13 300.606 523.788 304.754 517.13C306.202 514.805 309.948 509.476 316.891 505.871C318.324 505.127 321.956 503.387 326.997 502.677C329.136 502.375 334.439 501.851 340.801 503.745C349.013 506.19 353.874 511.144 354.959 512.291C356.805 514.24 359.905 518.022 361.809 523.665C362.649 526.157 364.111 531.546 363.065 538.244C362.584 541.321 361.713 543.787 360.998 545.472C360.731 545.966 360.308 546.637 359.661 547.313C359.653 547.321 359.645 547.33 359.637 547.339C358.667 543.577 356.206 540.066 355.683 539.281C353.212 535.574 350.467 533.453 348.05 531.618C346.952 530.785 341.619 526.806 333.212 524.209C327.162 522.34 322.278 522.019 317.058 521.677C312.708 521.391 309.051 521.445 306.419 521.562C306.482 524.239 306.816 527.694 307.864 531.585C308.271 533.097 309.341 536.74 311.665 541.011C312.736 542.981 314.603 546.058 317.528 549.342C318.98 550.972 320.597 552.794 323.202 554.668C326.547 557.075 329.58 558.162 331.552 558.857C333.21 559.441 335.777 560.327 339.312 560.679C340.986 560.846 343.662 561.1 347.009 560.459C349.429 559.995 351.179 559.314 352.151 558.919C353.383 558.418 354.43 557.987 355.417 557.382C356.944 556.614 358.928 554.879 359.517 554.366C360.292 553.689 362.232 551.899 364.062 548.835C364.579 547.971 366.178 545.151 367.211 540.759C369.074 532.844 367.561 526.249 367.025 524.188Z" fill="#C0C0C0" stroke="#C0C0C0" stroke-width="2.46111" stroke-miterlimit="10"/>
<path d="M367.025 854.188C366.572 852.452 364.346 844.469 356.971 837.453C354.522 835.123 349.165 830.672 340.991 828.546C337.947 827.753 332.513 826.765 325.907 827.868C324.215 828.151 319.411 829.077 313.976 832.112C311.566 833.457 306.137 836.565 301.764 842.917C297.287 849.418 296.373 855.707 295.831 859.76C294.938 866.442 295.791 871.609 296.46 875.469C297.846 883.468 300.456 889.197 302.618 893.944C302.618 893.944 305.601 900.438 310.179 907.893C311.047 909.306 312.104 910.984 312.104 910.984C313.081 912.536 313.755 913.58 314.494 914.722C314.842 915.259 315.134 915.7 315.382 916.068C315.526 916.281 315.862 916.789 316.755 918.114C317.083 918.599 317.521 919.247 318.044 920.02C318.42 920.02 318.798 920.02 319.175 920.02C320.547 920.02 321.919 920.02 323.291 920.02C322.918 919.538 322.357 918.8 321.689 917.884C320.914 916.822 320.292 915.898 319.049 914.114C318.526 913.363 317.958 912.546 317.274 911.505C317.036 911.144 316.249 909.938 315.247 908.27C313.794 905.847 311.081 901.419 309.026 897.336C306.093 891.51 303.571 886.501 301.801 879.491C300.747 875.322 299.533 870.519 299.915 864.095C300.152 860.13 300.606 853.788 304.754 847.13C306.202 844.805 309.948 839.476 316.891 835.871C318.324 835.127 321.956 833.387 326.997 832.677C329.136 832.375 334.439 831.851 340.801 833.745C349.013 836.19 353.874 841.144 354.959 842.291C356.805 844.24 359.905 848.022 361.809 853.665C362.649 856.157 364.111 861.546 363.065 868.243C362.584 871.321 361.713 873.787 360.998 875.472C360.731 875.966 360.308 876.637 359.661 877.313C359.653 877.321 359.645 877.33 359.637 877.338C358.667 873.577 356.206 870.066 355.683 869.281C353.212 865.574 350.467 863.453 348.05 861.618C346.952 860.785 341.619 856.805 333.212 854.209C327.162 852.34 322.278 852.019 317.058 851.677C312.708 851.391 309.051 851.445 306.419 851.562C306.482 854.239 306.816 857.694 307.864 861.585C308.271 863.097 309.341 866.74 311.665 871.011C312.736 872.981 314.603 876.057 317.528 879.342C318.98 880.972 320.597 882.794 323.202 884.668C326.547 887.075 329.58 888.162 331.552 888.856C333.21 889.441 335.777 890.327 339.312 890.679C340.986 890.846 343.662 891.1 347.009 890.459C349.429 889.995 351.179 889.314 352.151 888.919C353.383 888.418 354.43 887.986 355.417 887.382C356.944 886.614 358.928 884.879 359.517 884.366C360.292 883.689 362.232 881.899 364.062 878.835C364.579 877.971 366.178 875.151 367.211 870.759C369.074 862.844 367.561 856.249 367.025 854.188Z" fill="#C0C0C0" stroke="#C0C0C0" stroke-width="2.46111" stroke-miterlimit="10"/>
<path d="M512.636 29.9948C512.184 28.2585 509.958 20.2759 502.583 13.2592C500.134 10.9298 494.776 6.47888 486.603 4.35249C483.558 3.56001 478.124 2.57188 471.519 3.67445C469.827 3.95748 465.023 4.88409 459.587 7.91863C457.178 9.26363 451.749 12.372 447.375 18.7241C442.899 25.2251 441.984 31.5133 441.443 35.5667C440.549 42.2486 441.402 47.4157 442.072 51.276C443.457 59.2746 446.067 65.004 448.229 69.7503C448.229 69.7503 451.212 76.2451 455.791 83.6998C456.659 85.1125 457.716 86.791 457.716 86.791C458.693 88.3427 459.367 89.3862 460.105 90.5282C460.454 91.0659 460.745 91.5065 460.994 91.8744C461.138 92.0873 461.474 92.5955 462.367 93.9208C462.694 94.4057 463.133 95.0542 463.656 95.8269C464.032 95.8269 464.41 95.8269 464.786 95.8269C466.158 95.8269 467.531 95.8269 468.903 95.8269C468.53 95.3446 467.969 94.6062 467.3 93.6907C466.525 92.6287 465.904 91.7046 464.661 89.9203C464.138 89.1696 463.569 88.3526 462.885 87.3115C462.648 86.951 461.86 85.745 460.858 84.0764C459.405 81.6534 456.693 77.2259 454.638 73.1429C451.704 67.3162 449.183 62.3079 447.412 55.2974C446.359 51.1283 445.144 46.3254 445.527 39.902C445.763 35.9371 446.217 29.5948 450.366 22.9363C451.814 20.6118 455.56 15.2823 462.502 11.678C463.936 10.9335 467.567 9.19349 472.609 8.48346C474.748 8.18197 480.05 7.65776 486.412 9.55158C494.625 11.9967 499.486 16.9509 500.571 18.0978C502.417 20.047 505.516 23.8285 507.42 29.4718C508.261 31.9637 509.723 37.3522 508.677 44.0502C508.195 47.1278 507.324 49.5938 506.609 51.2784C506.342 51.7731 505.92 52.4438 505.273 53.1193C505.264 53.128 505.257 53.1366 505.248 53.1452C504.279 49.3834 501.817 45.8726 501.294 45.0875C498.824 41.3811 496.078 39.2596 493.661 37.4248C492.564 36.5918 487.23 32.6122 478.823 30.0157C472.774 28.1465 467.89 27.8253 462.67 27.4832C458.32 27.1977 454.663 27.2519 452.03 27.3688C452.093 30.0452 452.428 33.5006 453.475 37.3916C453.882 38.904 454.953 42.5464 457.276 46.8177C458.348 48.7878 460.215 51.8642 463.14 55.1485C464.592 56.779 466.209 58.6002 468.814 60.4744C472.159 62.8813 475.192 63.9691 477.163 64.6632C478.822 65.2477 481.389 66.1337 484.923 66.4856C486.598 66.653 489.273 66.9065 492.62 66.2653C495.041 65.8014 496.791 65.1209 497.763 64.7259C498.995 64.2251 500.042 63.7932 501.029 63.189C502.556 62.4211 504.539 60.686 505.129 60.1729C505.904 59.4961 507.843 57.7056 509.673 54.6415C510.19 53.7777 511.79 50.9573 512.822 46.5654C514.685 38.6505 513.173 32.0559 512.636 29.9948Z" fill="#C0C0C0" stroke="#C0C0C0" stroke-width="2.46111" stroke-miterlimit="10"/>
<path d="M512.636 359.591C512.184 357.855 509.958 349.873 502.583 342.856C500.134 340.526 494.776 336.076 486.603 333.949C483.558 333.157 478.124 332.169 471.519 333.271C469.827 333.554 465.023 334.481 459.587 337.515C457.178 338.86 451.749 341.969 447.375 348.321C442.899 354.822 441.984 361.11 441.443 365.163C440.549 371.845 441.402 377.012 442.072 380.873C443.457 388.871 446.067 394.601 448.229 399.347C448.229 399.347 451.212 405.842 455.791 413.297C456.659 414.709 457.716 416.388 457.716 416.388C458.693 417.939 459.367 418.983 460.105 420.125C460.454 420.663 460.745 421.103 460.994 421.471C461.138 421.684 461.474 422.192 462.367 423.517C462.694 424.002 463.133 424.651 463.656 425.424C464.032 425.424 464.41 425.424 464.786 425.424C466.158 425.424 467.531 425.424 468.903 425.424C468.53 424.941 467.969 424.203 467.3 423.287C466.525 422.225 465.904 421.301 464.661 419.517C464.138 418.766 463.569 417.949 462.885 416.908C462.648 416.548 461.86 415.342 460.858 413.673C459.405 411.25 456.693 406.823 454.638 402.74C451.704 396.913 449.183 391.905 447.412 384.894C446.359 380.725 445.144 375.922 445.527 369.499C445.763 365.534 446.217 359.192 450.366 352.533C451.814 350.208 455.56 344.879 462.502 341.275C463.936 340.53 467.567 338.79 472.609 338.08C474.748 337.779 480.05 337.254 486.412 339.148C494.625 341.593 499.486 346.548 500.571 347.694C502.417 349.644 505.516 353.425 507.42 359.068C508.261 361.56 509.723 366.949 508.677 373.647C508.195 376.724 507.324 379.19 506.609 380.875C506.342 381.37 505.92 382.04 505.273 382.716C505.264 382.725 505.257 382.733 505.248 382.742C504.279 378.98 501.817 375.469 501.294 374.684C498.824 370.978 496.078 368.856 493.661 367.022C492.564 366.188 487.23 362.209 478.823 359.612C472.774 357.743 467.89 357.422 462.67 357.08C458.32 356.794 454.663 356.849 452.03 356.965C452.093 359.642 452.428 363.097 453.475 366.988C453.882 368.501 454.953 372.143 457.276 376.414C458.348 378.384 460.215 381.461 463.14 384.745C464.592 386.376 466.209 388.197 468.814 390.071C472.159 392.478 475.192 393.566 477.163 394.26C478.822 394.844 481.389 395.73 484.923 396.082C486.598 396.25 489.273 396.503 492.62 395.862C495.041 395.398 496.791 394.718 497.763 394.323C498.995 393.822 500.042 393.39 501.029 392.786C502.556 392.018 504.539 390.283 505.129 389.77C505.904 389.093 507.843 387.302 509.673 384.238C510.19 383.374 511.79 380.554 512.822 376.162C514.685 368.247 513.173 361.653 512.636 359.591Z" fill="#C0C0C0" stroke="#C0C0C0" stroke-width="2.46111" stroke-miterlimit="10"/>
<path d="M512.636 689.591C512.184 687.855 509.958 679.872 502.583 672.856C500.134 670.526 494.776 666.076 486.603 663.949C483.558 663.157 478.124 662.169 471.519 663.271C469.827 663.554 465.023 664.481 459.587 667.515C457.178 668.86 451.749 671.969 447.375 678.321C442.899 684.822 441.984 691.11 441.443 695.163C440.549 701.845 441.402 707.012 442.072 710.873C443.457 718.871 446.067 724.601 448.229 729.347C448.229 729.347 451.212 735.842 455.791 743.296C456.659 744.709 457.716 746.388 457.716 746.388C458.693 747.939 459.367 748.983 460.105 750.125C460.454 750.663 460.745 751.103 460.994 751.471C461.138 751.684 461.474 752.192 462.367 753.517C462.694 754.002 463.133 754.651 463.656 755.424C464.032 755.424 464.41 755.424 464.786 755.424C466.158 755.424 467.531 755.424 468.903 755.424C468.53 754.941 467.969 754.203 467.3 753.287C466.525 752.225 465.904 751.301 464.661 749.517C464.138 748.766 463.569 747.949 462.885 746.908C462.648 746.548 461.86 745.342 460.858 743.673C459.405 741.25 456.693 736.823 454.638 732.74C451.704 726.913 449.183 721.905 447.412 714.894C446.359 710.725 445.144 705.922 445.527 699.499C445.763 695.534 446.217 689.191 450.366 682.533C451.814 680.208 455.56 674.879 462.502 671.275C463.936 670.53 467.567 668.79 472.609 668.08C474.748 667.779 480.05 667.254 486.412 669.148C494.625 671.593 499.486 676.548 500.571 677.694C502.417 679.644 505.516 683.425 507.42 689.068C508.261 691.56 509.723 696.949 508.677 703.647C508.195 706.724 507.324 709.19 506.609 710.875C506.342 711.37 505.92 712.04 505.273 712.716C505.264 712.725 505.257 712.733 505.248 712.742C504.279 708.98 501.817 705.469 501.294 704.684C498.824 700.978 496.078 698.856 493.661 697.021C492.564 696.188 487.23 692.209 478.823 689.612C472.774 687.743 467.89 687.422 462.67 687.08C458.32 686.794 454.663 686.849 452.03 686.965C452.093 689.642 452.428 693.097 453.475 696.988C453.882 698.501 454.953 702.143 457.276 706.414C458.348 708.384 460.215 711.461 463.14 714.745C464.592 716.376 466.209 718.197 468.814 720.071C472.159 722.478 475.192 723.566 477.163 724.26C478.822 724.844 481.389 725.73 484.923 726.082C486.598 726.25 489.273 726.503 492.62 725.862C495.041 725.398 496.791 724.718 497.763 724.323C498.995 723.822 500.042 723.39 501.029 722.786C502.556 722.018 504.539 720.283 505.129 719.77C505.904 719.093 507.843 717.302 509.673 714.238C510.19 713.374 511.79 710.554 512.822 706.162C514.685 698.247 513.173 691.653 512.636 689.591Z" fill="#C0C0C0" stroke="#C0C0C0" stroke-width="2.46111" stroke-miterlimit="10"/>
<path d="M512.636 194.591C512.184 192.855 509.958 184.873 502.583 177.856C500.134 175.526 494.776 171.076 486.603 168.949C483.558 168.157 478.124 167.169 471.519 168.271C469.827 168.554 465.023 169.481 459.587 172.515C457.178 173.86 451.749 176.969 447.375 183.321C442.899 189.822 441.984 196.11 441.443 200.163C440.549 206.845 441.402 212.012 442.072 215.873C443.457 223.871 446.067 229.601 448.229 234.347C448.229 234.347 451.212 240.842 455.791 248.297C456.659 249.709 457.716 251.388 457.716 251.388C458.693 252.939 459.367 253.983 460.105 255.125C460.454 255.663 460.745 256.103 460.994 256.471C461.138 256.684 461.474 257.192 462.367 258.518C462.694 259.002 463.133 259.651 463.656 260.424C464.032 260.424 464.41 260.424 464.786 260.424C466.158 260.424 467.531 260.424 468.903 260.424C468.53 259.941 467.969 259.203 467.3 258.287C466.525 257.225 465.904 256.301 464.661 254.517C464.138 253.766 463.569 252.949 462.885 251.908C462.648 251.548 461.86 250.342 460.858 248.673C459.405 246.25 456.693 241.823 454.638 237.74C451.704 231.913 449.183 226.905 447.412 219.894C446.359 215.725 445.144 210.922 445.527 204.499C445.763 200.534 446.217 194.192 450.366 187.533C451.814 185.208 455.56 179.879 462.502 176.275C463.936 175.53 467.567 173.79 472.609 173.08C474.748 172.779 480.05 172.254 486.412 174.148C494.625 176.593 499.486 181.548 500.571 182.694C502.417 184.644 505.516 188.425 507.42 194.068C508.261 196.56 509.723 201.949 508.677 208.647C508.195 211.724 507.324 214.19 506.609 215.875C506.342 216.37 505.92 217.04 505.273 217.716C505.264 217.725 505.257 217.733 505.248 217.742C504.279 213.98 501.817 210.469 501.294 209.684C498.824 205.978 496.078 203.856 493.661 202.022C492.564 201.188 487.23 197.209 478.823 194.612C472.774 192.743 467.89 192.422 462.67 192.08C458.32 191.794 454.663 191.849 452.03 191.965C452.093 194.642 452.428 198.097 453.475 201.988C453.882 203.501 454.953 207.143 457.276 211.414C458.348 213.384 460.215 216.461 463.14 219.745C464.592 221.376 466.209 223.197 468.814 225.071C472.159 227.478 475.192 228.566 477.163 229.26C478.822 229.844 481.389 230.73 484.923 231.082C486.598 231.25 489.273 231.503 492.62 230.862C495.041 230.398 496.791 229.718 497.763 229.323C498.995 228.822 500.042 228.39 501.029 227.786C502.556 227.018 504.539 225.283 505.129 224.77C505.904 224.093 507.843 222.302 509.673 219.238C510.19 218.374 511.79 215.554 512.822 211.162C514.685 203.247 513.173 196.653 512.636 194.591Z" fill="#C0C0C0" stroke="#C0C0C0" stroke-width="2.46111" stroke-miterlimit="10"/>
<path d="M512.636 524.188C512.184 522.452 509.958 514.469 502.583 507.453C500.134 505.123 494.776 500.672 486.603 498.546C483.558 497.753 478.124 496.765 471.519 497.868C469.827 498.151 465.023 499.077 459.587 502.112C457.178 503.457 451.749 506.565 447.375 512.917C442.899 519.418 441.984 525.707 441.443 529.76C440.549 536.442 441.402 541.609 442.072 545.469C443.457 553.468 446.067 559.197 448.229 563.944C448.229 563.944 451.212 570.438 455.791 577.893C456.659 579.306 457.716 580.984 457.716 580.984C458.693 582.536 459.367 583.58 460.105 584.722C460.454 585.259 460.745 585.7 460.994 586.068C461.138 586.281 461.474 586.789 462.367 588.114C462.694 588.599 463.133 589.248 463.656 590.02C464.032 590.02 464.41 590.02 464.786 590.02C466.158 590.02 467.531 590.02 468.903 590.02C468.53 589.538 467.969 588.8 467.3 587.884C466.525 586.822 465.904 585.898 464.661 584.114C464.138 583.363 463.569 582.546 462.885 581.505C462.648 581.144 461.86 579.938 460.858 578.27C459.405 575.847 456.693 571.419 454.638 567.336C451.704 561.51 449.183 556.501 447.412 549.491C446.359 545.322 445.144 540.519 445.527 534.095C445.763 530.13 446.217 523.788 450.366 517.13C451.814 514.805 455.56 509.476 462.502 505.871C463.936 505.127 467.567 503.387 472.609 502.677C474.748 502.375 480.05 501.851 486.412 503.745C494.625 506.19 499.486 511.144 500.571 512.291C502.417 514.24 505.516 518.022 507.42 523.665C508.261 526.157 509.723 531.546 508.677 538.244C508.195 541.321 507.324 543.787 506.609 545.472C506.342 545.966 505.92 546.637 505.273 547.313C505.264 547.321 505.257 547.33 505.248 547.339C504.279 543.577 501.817 540.066 501.294 539.281C498.824 535.574 496.078 533.453 493.661 531.618C492.564 530.785 487.23 526.806 478.823 524.209C472.774 522.34 467.89 522.019 462.67 521.677C458.32 521.391 454.663 521.445 452.03 521.562C452.093 524.239 452.428 527.694 453.475 531.585C453.882 533.097 454.953 536.74 457.276 541.011C458.348 542.981 460.215 546.058 463.14 549.342C464.592 550.972 466.209 552.794 468.814 554.668C472.159 557.075 475.192 558.162 477.163 558.857C478.822 559.441 481.389 560.327 484.923 560.679C486.598 560.846 489.273 561.1 492.62 560.459C495.041 559.995 496.791 559.314 497.763 558.919C498.995 558.418 500.042 557.987 501.029 557.382C502.556 556.614 504.539 554.879 505.129 554.366C505.904 553.689 507.843 551.899 509.673 548.835C510.19 547.971 511.79 545.151 512.822 540.759C514.685 532.844 513.173 526.249 512.636 524.188Z" fill="#C0C0C0" stroke="#C0C0C0" stroke-width="2.46111" stroke-miterlimit="10"/>
<path d="M512.636 854.188C512.184 852.452 509.958 844.469 502.583 837.453C500.134 835.123 494.776 830.672 486.603 828.546C483.558 827.753 478.124 826.765 471.519 827.868C469.827 828.151 465.023 829.077 459.587 832.112C457.178 833.457 451.749 836.565 447.375 842.917C442.899 849.418 441.984 855.707 441.443 859.76C440.549 866.442 441.402 871.609 442.072 875.469C443.457 883.468 446.067 889.197 448.229 893.944C448.229 893.944 451.212 900.438 455.791 907.893C456.659 909.306 457.716 910.984 457.716 910.984C458.693 912.536 459.367 913.58 460.105 914.722C460.454 915.259 460.745 915.7 460.994 916.068C461.138 916.281 461.474 916.789 462.367 918.114C462.694 918.599 463.133 919.247 463.656 920.02C464.032 920.02 464.41 920.02 464.786 920.02C466.158 920.02 467.531 920.02 468.903 920.02C468.53 919.538 467.969 918.8 467.3 917.884C466.525 916.822 465.904 915.898 464.661 914.114C464.138 913.363 463.569 912.546 462.885 911.505C462.648 911.144 461.86 909.938 460.858 908.27C459.405 905.847 456.693 901.419 454.638 897.336C451.704 891.51 449.183 886.501 447.412 879.491C446.359 875.322 445.144 870.519 445.527 864.095C445.763 860.13 446.217 853.788 450.366 847.13C451.814 844.805 455.56 839.476 462.502 835.871C463.936 835.127 467.567 833.387 472.609 832.677C474.748 832.375 480.05 831.851 486.412 833.745C494.625 836.19 499.486 841.144 500.571 842.291C502.417 844.24 505.516 848.022 507.42 853.665C508.261 856.157 509.723 861.546 508.677 868.243C508.195 871.321 507.324 873.787 506.609 875.472C506.342 875.966 505.92 876.637 505.273 877.313C505.264 877.321 505.257 877.33 505.248 877.338C504.279 873.577 501.817 870.066 501.294 869.281C498.824 865.574 496.078 863.453 493.661 861.618C492.564 860.785 487.23 856.805 478.823 854.209C472.774 852.34 467.89 852.019 462.67 851.677C458.32 851.391 454.663 851.445 452.03 851.562C452.093 854.239 452.428 857.694 453.475 861.585C453.882 863.097 454.953 866.74 457.276 871.011C458.348 872.981 460.215 876.057 463.14 879.342C464.592 880.972 466.209 882.794 468.814 884.668C472.159 887.075 475.192 888.162 477.163 888.856C478.822 889.441 481.389 890.327 484.923 890.679C486.598 890.846 489.273 891.1 492.62 890.459C495.041 889.995 496.791 889.314 497.763 888.919C498.995 888.418 500.042 887.986 501.029 887.382C502.556 886.614 504.539 884.879 505.129 884.366C505.904 883.689 507.843 881.899 509.673 878.835C510.19 877.971 511.79 875.151 512.822 870.759C514.685 862.844 513.173 856.249 512.636 854.188Z" fill="#C0C0C0" stroke="#C0C0C0" stroke-width="2.46111" stroke-miterlimit="10"/>
<path d="M658.248 29.9948C657.795 28.2585 655.569 20.2759 648.195 13.2592C645.746 10.9298 640.388 6.47888 632.215 4.35249C629.17 3.56001 623.736 2.57188 617.13 3.67445C615.438 3.95748 610.634 4.88409 605.199 7.91863C602.79 9.26363 597.36 12.372 592.987 18.7241C588.51 25.2251 587.596 31.5133 587.054 35.5667C586.161 42.2486 587.014 47.4157 587.683 51.276C589.069 59.2746 591.679 65.004 593.841 69.7503C593.841 69.7503 596.824 76.2451 601.403 83.6998C602.27 85.1125 603.327 86.791 603.327 86.791C604.304 88.3427 604.979 89.3862 605.717 90.5282C606.065 91.0659 606.357 91.5065 606.606 91.8744C606.749 92.0873 607.085 92.5955 607.979 93.9208C608.306 94.4057 608.744 95.0542 609.267 95.8269C609.644 95.8269 610.022 95.8269 610.398 95.8269C611.77 95.8269 613.142 95.8269 614.514 95.8269C614.141 95.3446 613.58 94.6062 612.912 93.6907C612.137 92.6287 611.515 91.7046 610.273 89.9203C609.75 89.1696 609.181 88.3526 608.497 87.3115C608.259 86.951 607.472 85.745 606.47 84.0764C605.017 81.6534 602.305 77.2259 600.25 73.1429C597.316 67.3162 594.795 62.3079 593.024 55.2974C591.971 51.1283 590.756 46.3254 591.139 39.902C591.375 35.9371 591.829 29.5948 595.977 22.9363C597.426 20.6118 601.171 15.2823 608.114 11.678C609.548 10.9335 613.179 9.19349 618.221 8.48346C620.359 8.18197 625.662 7.65776 632.024 9.55158C640.237 11.9967 645.097 16.9509 646.183 18.0978C648.028 20.047 651.128 23.8285 653.032 29.4718C653.872 31.9637 655.334 37.3522 654.288 44.0502C653.807 47.1278 652.936 49.5938 652.221 51.2784C651.954 51.7731 651.532 52.4438 650.885 53.1193C650.876 53.128 650.869 53.1366 650.86 53.1452C649.89 49.3834 647.429 45.8726 646.906 45.0875C644.435 41.3811 641.69 39.2596 639.273 37.4248C638.175 36.5918 632.842 32.6122 624.435 30.0157C618.386 28.1465 613.502 27.8253 608.282 27.4832C603.932 27.1977 600.274 27.2519 597.642 27.3688C597.705 30.0452 598.04 33.5006 599.087 37.3916C599.494 38.904 600.565 42.5464 602.888 46.8177C603.96 48.7878 605.827 51.8642 608.752 55.1485C610.204 56.779 611.821 58.6002 614.426 60.4744C617.77 62.8813 620.804 63.9691 622.775 64.6632C624.434 65.2477 627.001 66.1337 630.535 66.4856C632.21 66.653 634.885 66.9065 638.232 66.2653C640.652 65.8014 642.402 65.1209 643.374 64.7259C644.606 64.2251 645.653 63.7932 646.64 63.189C648.167 62.4211 650.151 60.686 650.741 60.1729C651.516 59.4961 653.455 57.7056 655.285 54.6415C655.802 53.7777 657.402 50.9573 658.434 46.5654C660.297 38.6505 658.785 32.0559 658.248 29.9948Z" fill="#C0C0C0" stroke="#C0C0C0" stroke-width="2.46111" stroke-miterlimit="10"/>
<path d="M658.248 359.591C657.795 357.855 655.569 349.873 648.195 342.856C645.746 340.526 640.388 336.076 632.215 333.949C629.17 333.157 623.736 332.169 617.13 333.271C615.438 333.554 610.634 334.481 605.199 337.515C602.79 338.86 597.36 341.969 592.987 348.321C588.51 354.822 587.596 361.11 587.054 365.163C586.161 371.845 587.014 377.012 587.683 380.873C589.069 388.871 591.679 394.601 593.841 399.347C593.841 399.347 596.824 405.842 601.403 413.297C602.27 414.709 603.327 416.388 603.327 416.388C604.304 417.939 604.979 418.983 605.717 420.125C606.065 420.663 606.357 421.103 606.606 421.471C606.749 421.684 607.085 422.192 607.979 423.517C608.306 424.002 608.744 424.651 609.267 425.424C609.644 425.424 610.022 425.424 610.398 425.424C611.77 425.424 613.142 425.424 614.514 425.424C614.141 424.941 613.58 424.203 612.912 423.287C612.137 422.225 611.515 421.301 610.273 419.517C609.75 418.766 609.181 417.949 608.497 416.908C608.259 416.548 607.472 415.342 606.47 413.673C605.017 411.25 602.305 406.823 600.25 402.74C597.316 396.913 594.795 391.905 593.024 384.894C591.971 380.725 590.756 375.922 591.139 369.499C591.375 365.534 591.829 359.192 595.977 352.533C597.426 350.208 601.171 344.879 608.114 341.275C609.548 340.53 613.179 338.79 618.221 338.08C620.359 337.779 625.662 337.254 632.024 339.148C640.237 341.593 645.097 346.548 646.183 347.694C648.028 349.644 651.128 353.425 653.032 359.068C653.872 361.56 655.334 366.949 654.288 373.647C653.807 376.724 652.936 379.19 652.221 380.875C651.954 381.37 651.532 382.04 650.885 382.716C650.876 382.725 650.869 382.733 650.86 382.742C649.89 378.98 647.429 375.469 646.906 374.684C644.435 370.978 641.69 368.856 639.273 367.022C638.175 366.188 632.842 362.209 624.435 359.612C618.386 357.743 613.502 357.422 608.282 357.08C603.932 356.794 600.274 356.849 597.642 356.965C597.705 359.642 598.04 363.097 599.087 366.988C599.494 368.501 600.565 372.143 602.888 376.414C603.96 378.384 605.827 381.461 608.752 384.745C610.204 386.376 611.821 388.197 614.426 390.071C617.77 392.478 620.804 393.566 622.775 394.26C624.434 394.844 627.001 395.73 630.535 396.082C632.21 396.25 634.885 396.503 638.232 395.862C640.652 395.398 642.402 394.718 643.374 394.323C644.606 393.822 645.653 393.39 646.64 392.786C648.167 392.018 650.151 390.283 650.741 389.77C651.516 389.093 653.455 387.302 655.285 384.238C655.802 383.374 657.402 380.554 658.434 376.162C660.297 368.247 658.785 361.653 658.248 359.591Z" fill="#C0C0C0" stroke="#C0C0C0" stroke-width="2.46111" stroke-miterlimit="10"/>
<path d="M658.248 689.591C657.795 687.855 655.569 679.872 648.195 672.856C645.746 670.526 640.388 666.076 632.215 663.949C629.17 663.157 623.736 662.169 617.13 663.271C615.438 663.554 610.634 664.481 605.199 667.515C602.79 668.86 597.36 671.969 592.987 678.321C588.51 684.822 587.596 691.11 587.054 695.163C586.161 701.845 587.014 707.012 587.683 710.873C589.069 718.871 591.679 724.601 593.841 729.347C593.841 729.347 596.824 735.842 601.403 743.296C602.27 744.709 603.327 746.388 603.327 746.388C604.304 747.939 604.979 748.983 605.717 750.125C606.065 750.663 606.357 751.103 606.606 751.471C606.749 751.684 607.085 752.192 607.979 753.517C608.306 754.002 608.744 754.651 609.267 755.424C609.644 755.424 610.022 755.424 610.398 755.424C611.77 755.424 613.142 755.424 614.514 755.424C614.141 754.941 613.58 754.203 612.912 753.287C612.137 752.225 611.515 751.301 610.273 749.517C609.75 748.766 609.181 747.949 608.497 746.908C608.259 746.548 607.472 745.342 606.47 743.673C605.017 741.25 602.305 736.823 600.25 732.74C597.316 726.913 594.795 721.905 593.024 714.894C591.971 710.725 590.756 705.922 591.139 699.499C591.375 695.534 591.829 689.191 595.977 682.533C597.426 680.208 601.171 674.879 608.114 671.275C609.548 670.53 613.179 668.79 618.221 668.08C620.359 667.779 625.662 667.254 632.024 669.148C640.237 671.593 645.097 676.548 646.183 677.694C648.028 679.644 651.128 683.425 653.032 689.068C653.872 691.56 655.334 696.949 654.288 703.647C653.807 706.724 652.936 709.19 652.221 710.875C651.954 711.37 651.532 712.04 650.885 712.716C650.876 712.725 650.869 712.733 650.86 712.742C649.89 708.98 647.429 705.469 646.906 704.684C644.435 700.978 641.69 698.856 639.273 697.021C638.175 696.188 632.842 692.209 624.435 689.612C618.386 687.743 613.502 687.422 608.282 687.08C603.932 686.794 600.274 686.849 597.642 686.965C597.705 689.642 598.04 693.097 599.087 696.988C599.494 698.501 600.565 702.143 602.888 706.414C603.96 708.384 605.827 711.461 608.752 714.745C610.204 716.376 611.821 718.197 614.426 720.071C617.77 722.478 620.804 723.566 622.775 724.26C624.434 724.844 627.001 725.73 630.535 726.082C632.21 726.25 634.885 726.503 638.232 725.862C640.652 725.398 642.402 724.718 643.374 724.323C644.606 723.822 645.653 723.39 646.64 722.786C648.167 722.018 650.151 720.283 650.741 719.77C651.516 719.093 653.455 717.302 655.285 714.238C655.802 713.374 657.402 710.554 658.434 706.162C660.297 698.247 658.785 691.653 658.248 689.591Z" fill="#C0C0C0" stroke="#C0C0C0" stroke-width="2.46111" stroke-miterlimit="10"/>
<path d="M658.248 194.591C657.795 192.855 655.569 184.873 648.195 177.856C645.746 175.526 640.388 171.076 632.215 168.949C629.17 168.157 623.736 167.169 617.13 168.271C615.438 168.554 610.634 169.481 605.199 172.515C602.79 173.86 597.36 176.969 592.987 183.321C588.51 189.822 587.596 196.11 587.054 200.163C586.161 206.845 587.014 212.012 587.683 215.873C589.069 223.871 591.679 229.601 593.841 234.347C593.841 234.347 596.824 240.842 601.403 248.297C602.27 249.709 603.327 251.388 603.327 251.388C604.304 252.939 604.979 253.983 605.717 255.125C606.065 255.663 606.357 256.103 606.606 256.471C606.749 256.684 607.085 257.192 607.979 258.518C608.306 259.002 608.744 259.651 609.267 260.424C609.644 260.424 610.022 260.424 610.398 260.424C611.77 260.424 613.142 260.424 614.514 260.424C614.141 259.941 613.58 259.203 612.912 258.287C612.137 257.225 611.515 256.301 610.273 254.517C609.75 253.766 609.181 252.949 608.497 251.908C608.259 251.548 607.472 250.342 606.47 248.673C605.017 246.25 602.305 241.823 600.25 237.74C597.316 231.913 594.795 226.905 593.024 219.894C591.971 215.725 590.756 210.922 591.139 204.499C591.375 200.534 591.829 194.192 595.977 187.533C597.426 185.208 601.171 179.879 608.114 176.275C609.548 175.53 613.179 173.79 618.221 173.08C620.359 172.779 625.662 172.254 632.024 174.148C640.237 176.593 645.097 181.548 646.183 182.694C648.028 184.644 651.128 188.425 653.032 194.068C653.872 196.56 655.334 201.949 654.288 208.647C653.807 211.724 652.936 214.19 652.221 215.875C651.954 216.37 651.532 217.04 650.885 217.716C650.876 217.725 650.869 217.733 650.86 217.742C649.89 213.98 647.429 210.469 646.906 209.684C644.435 205.978 641.69 203.856 639.273 202.022C638.175 201.188 632.842 197.209 624.435 194.612C618.386 192.743 613.502 192.422 608.282 192.08C603.932 191.794 600.274 191.849 597.642 191.965C597.705 194.642 598.04 198.097 599.087 201.988C599.494 203.501 600.565 207.143 602.888 211.414C603.96 213.384 605.827 216.461 608.752 219.745C610.204 221.376 611.821 223.197 614.426 225.071C617.77 227.478 620.804 228.566 622.775 229.26C624.434 229.844 627.001 230.73 630.535 231.082C632.21 231.25 634.885 231.503 638.232 230.862C640.652 230.398 642.402 229.718 643.374 229.323C644.606 228.822 645.653 228.39 646.64 227.786C648.167 227.018 650.151 225.283 650.741 224.77C651.516 224.093 653.455 222.302 655.285 219.238C655.802 218.374 657.402 215.554 658.434 211.162C660.297 203.247 658.785 196.653 658.248 194.591Z" fill="#C0C0C0" stroke="#C0C0C0" stroke-width="2.46111" stroke-miterlimit="10"/>
<path d="M658.248 524.188C657.795 522.452 655.569 514.469 648.195 507.453C645.746 505.123 640.388 500.672 632.215 498.546C629.17 497.753 623.736 496.765 617.13 497.868C615.438 498.151 610.634 499.077 605.199 502.112C602.79 503.457 597.36 506.565 592.987 512.917C588.51 519.418 587.596 525.707 587.054 529.76C586.161 536.442 587.014 541.609 587.683 545.469C589.069 553.468 591.679 559.197 593.841 563.944C593.841 563.944 596.824 570.438 601.403 577.893C602.27 579.306 603.327 580.984 603.327 580.984C604.304 582.536 604.979 583.58 605.717 584.722C606.065 585.259 606.357 585.7 606.606 586.068C606.749 586.281 607.085 586.789 607.979 588.114C608.306 588.599 608.744 589.248 609.267 590.02C609.644 590.02 610.022 590.02 610.398 590.02C611.77 590.02 613.142 590.02 614.514 590.02C614.141 589.538 613.58 588.8 612.912 587.884C612.137 586.822 611.515 585.898 610.273 584.114C609.75 583.363 609.181 582.546 608.497 581.505C608.259 581.144 607.472 579.938 606.47 578.27C605.017 575.847 602.305 571.419 600.25 567.336C597.316 561.51 594.795 556.501 593.024 549.491C591.971 545.322 590.756 540.519 591.139 534.095C591.375 530.13 591.829 523.788 595.977 517.13C597.426 514.805 601.171 509.476 608.114 505.871C609.548 505.127 613.179 503.387 618.221 502.677C620.359 502.375 625.662 501.851 632.024 503.745C640.237 506.19 645.097 511.144 646.183 512.291C648.028 514.24 651.128 518.022 653.032 523.665C653.872 526.157 655.334 531.546 654.288 538.244C653.807 541.321 652.936 543.787 652.221 545.472C651.954 545.966 651.532 546.637 650.885 547.313C650.876 547.321 650.869 547.33 650.86 547.339C649.89 543.577 647.429 540.066 646.906 539.281C644.435 535.574 641.69 533.453 639.273 531.618C638.175 530.785 632.842 526.806 624.435 524.209C618.386 522.34 613.502 522.019 608.282 521.677C603.932 521.391 600.274 521.445 597.642 521.562C597.705 524.239 598.04 527.694 599.087 531.585C599.494 533.097 600.565 536.74 602.888 541.011C603.96 542.981 605.827 546.058 608.752 549.342C610.204 550.972 611.821 552.794 614.426 554.668C617.77 557.075 620.804 558.162 622.775 558.857C624.434 559.441 627.001 560.327 630.535 560.679C632.21 560.846 634.885 561.1 638.232 560.459C640.652 559.995 642.402 559.314 643.374 558.919C644.606 558.418 645.653 557.987 646.64 557.382C648.167 556.614 650.151 554.879 650.741 554.366C651.516 553.689 653.455 551.899 655.285 548.835C655.802 547.971 657.402 545.151 658.434 540.759C660.297 532.844 658.785 526.249 658.248 524.188Z" fill="#C0C0C0" stroke="#C0C0C0" stroke-width="2.46111" stroke-miterlimit="10"/>
<path d="M658.248 854.188C657.795 852.452 655.569 844.469 648.195 837.453C645.746 835.123 640.388 830.672 632.215 828.546C629.17 827.753 623.736 826.765 617.13 827.868C615.438 828.151 610.634 829.077 605.199 832.112C602.79 833.457 597.36 836.565 592.987 842.917C588.51 849.418 587.596 855.707 587.054 859.76C586.161 866.442 587.014 871.609 587.683 875.469C589.069 883.468 591.679 889.197 593.841 893.944C593.841 893.944 596.824 900.438 601.403 907.893C602.27 909.306 603.327 910.984 603.327 910.984C604.304 912.536 604.979 913.58 605.717 914.722C606.065 915.259 606.357 915.7 606.606 916.068C606.749 916.281 607.085 916.789 607.979 918.114C608.306 918.599 608.744 919.247 609.267 920.02C609.644 920.02 610.022 920.02 610.398 920.02C611.77 920.02 613.142 920.02 614.514 920.02C614.141 919.538 613.58 918.8 612.912 917.884C612.137 916.822 611.515 915.898 610.273 914.114C609.75 913.363 609.181 912.546 608.497 911.505C608.259 911.144 607.472 909.938 606.47 908.27C605.017 905.847 602.305 901.419 600.25 897.336C597.316 891.51 594.795 886.501 593.024 879.491C591.971 875.322 590.756 870.519 591.139 864.095C591.375 860.13 591.829 853.788 595.977 847.13C597.426 844.805 601.171 839.476 608.114 835.871C609.548 835.127 613.179 833.387 618.221 832.677C620.359 832.375 625.662 831.851 632.024 833.745C640.237 836.19 645.097 841.144 646.183 842.291C648.028 844.24 651.128 848.022 653.032 853.665C653.872 856.157 655.334 861.546 654.288 868.243C653.807 871.321 652.936 873.787 652.221 875.472C651.954 875.966 651.532 876.637 650.885 877.313C650.876 877.321 650.869 877.33 650.86 877.338C649.89 873.577 647.429 870.066 646.906 869.281C644.435 865.574 641.69 863.453 639.273 861.618C638.175 860.785 632.842 856.805 624.435 854.209C618.386 852.34 613.502 852.019 608.282 851.677C603.932 851.391 600.274 851.445 597.642 851.562C597.705 854.239 598.04 857.694 599.087 861.585C599.494 863.097 600.565 866.74 602.888 871.011C603.96 872.981 605.827 876.057 608.752 879.342C610.204 880.972 611.821 882.794 614.426 884.668C617.77 887.075 620.804 888.162 622.775 888.856C624.434 889.441 627.001 890.327 630.535 890.679C632.21 890.846 634.885 891.1 638.232 890.459C640.652 889.995 642.402 889.314 643.374 888.919C644.606 888.418 645.653 887.986 646.64 887.382C648.167 886.614 650.151 884.879 650.741 884.366C651.516 883.689 653.455 881.899 655.285 878.835C655.802 877.971 657.402 875.151 658.434 870.759C660.297 862.844 658.785 856.249 658.248 854.188Z" fill="#C0C0C0" stroke="#C0C0C0" stroke-width="2.46111" stroke-miterlimit="10"/>
</svg>
